<svg data-v-0dd9719b="" version="1.0" xmlns="http://www.w3.org/2000/svg" xmlns:xlink="http://www.w3.org/1999/xlink" width="100%" height="100%" viewBox="0 0 340.000000 250.000000" preserveAspectRatio="xMidYMid meet" color-interpolation-filters="sRGB" style="margin: auto;"> <rect data-v-0dd9719b="" x="0" y="0" width="100%" height="100%" fill="#fff" fill-opacity="1" class="background"></rect> <rect data-v-0dd9719b="" x="0" y="0" width="100%" height="100%" fill="url(#watermark)" fill-opacity="1" class="watermarklayer"></rect> <g data-v-0dd9719b="" fill="#e2a171" class="icon-text-wrapper icon-svg-group iconsvg" transform="translate(47.867149353027344,95.00090026855469)"><g class="iconsvg-imagesvg" transform="translate(0,0)"><g><rect fill="#e2a171" fill-opacity="0" stroke-width="2" x="0" y="0" width="60" height="59.99820005399838" class="image-rect"></rect> <svg x="0" y="0" width="60" height="59.99820005399838" filtersec="colorsb8040749942" class="image-svg-svg primary" style="overflow: visible;"><svg xmlns="http://www.w3.org/2000/svg" viewBox="0 0 293.45001220703125 293.44000244140625"><g><g fill="#e2a171"><path d="M93.07 204.94a21.9 21.9 0 0 0 21.65 18.89h64a21.9 21.9 0 0 0 21.65-18.89 21.9 21.9 0 0 0 18.89-21.65v-5.14-.25a21.9 21.9 0 0 0-18.87-21.4 21.9 21.9 0 0 0-21.65-18.9h-5.39a21.9 21.9 0 0 0-21.63 21.85 3.21 3.21 0 0 0 3.22 3.21h39.25v36H99.27v-104h80.49a21.88 21.88 0 0 0 21.61 18.67h14.69a3.22 3.22 0 0 0 3.21-3.22 21.9 21.9 0 0 0-21.87-21.83h-11.74a21.88 21.88 0 0 0-21.61-18.66h-49.33a21.89 21.89 0 0 0-21.65 18.89 21.9 21.9 0 0 0-18.9 21.65v73.13a21.91 21.91 0 0 0 18.9 21.65zm85.66 12.46h-64a15.47 15.47 0 0 1-15.11-12.24h94.22a15.47 15.47 0 0 1-15.11 12.24zm34.1-39.25v5.13a15.48 15.48 0 0 1-12.23 15.11V163a15.47 15.47 0 0 1 12.23 15.15zM173.59 144h5.14a15.47 15.47 0 0 1 15.11 12.24h-35.35a15.46 15.46 0 0 1 15.1-12.24zm38.91-37h-11.13a15.47 15.47 0 0 1-15.11-12.24h11.14A15.47 15.47 0 0 1 212.5 107zm-97.78-30.9h49.33a15.45 15.45 0 0 1 15.1 12.23H99.61a15.46 15.46 0 0 1 15.11-12.28zM80.6 110.16a15.48 15.48 0 0 1 12.24-15.11V198.4a15.49 15.49 0 0 1-12.24-15.11z"></path><path d="M71.55 293.44h133.21a71.49 71.49 0 0 0 58.39-30.28 71.48 71.48 0 0 0 30.3-58.4V71.55A71.64 71.64 0 0 0 221.89 0H88.69a71.52 71.52 0 0 0-58.4 30.28A71.5 71.5 0 0 0 0 88.68v133.21a71.63 71.63 0 0 0 71.55 71.55zm-48-221.89A64.69 64.69 0 0 1 34.9 34.89a64.76 64.76 0 0 1 36.65-11.33h133.21a65.2 65.2 0 0 1 65.12 65.12v133.21a64.8 64.8 0 0 1-11.33 36.67 64.76 64.76 0 0 1-36.66 11.32H88.69a65.19 65.19 0 0 1-65.12-65.12zM88.69 6.43h133.2A65.2 65.2 0 0 1 287 71.55v133.21a64.88 64.88 0 0 1-15 41.52 71.48 71.48 0 0 0 4.28-24.39V88.68a71.63 71.63 0 0 0-71.55-71.55H71.55a71.36 71.36 0 0 0-24.37 4.28A64.85 64.85 0 0 1 88.69 6.43zM6.43 88.68a64.8 64.8 0 0 1 15-41.51 71.14 71.14 0 0 0-4.28 24.38v133.21a71.63 71.63 0 0 0 71.55 71.55h133.2a71.14 71.14 0 0 0 24.37-4.31 64.85 64.85 0 0 1-41.51 15H71.55a65.2 65.2 0 0 1-65.12-65.11z"></path></g></g></svg></svg> <!----></g></g> <g transform="translate(67,1.2428474426269531)"><g data-gra="path-name" fill-rule="" class="tp-name iconsvg-namesvg" transform="translate(0,0)"><g transform="scale(1)"><g><path d="M26.28-30.73L42.93-30.73 42.93-29.43Q42.93-29.43 11.21-29.43L11.21-29.43 11.21-19.21Q11.21-16.96 11.12-15.25 11.03-13.54 10.71-11.21L10.71-11.21Q10.44-8.91 9.76-6.97L9.76-6.97Q9.09-5.08 8.05-3.06L8.05-3.06Q7.06-1.03 5.4 0.77 3.73 2.56 1.53 4.05L1.53 4.05 1.13 3.69Q3.87-0.77 4.68-6.25L4.68-6.25Q5.54-11.79 5.54-19.17L5.54-19.17 5.54-32.98 12.11-30.73 23.94-30.73Q23.58-30.87 23.09-31.18L23.09-31.18Q22.36-34.7 19.3-38.02L19.3-38.02 19.66-38.3Q25.96-37.75 27.49-34.74L27.49-34.74Q28.44-32.89 27.22-31.45L27.22-31.45Q26.82-31 26.28-30.73L26.28-30.73ZM54.23-19.53L54.23-37.57 59.27-36.9Q59.27-36.9 59.27-19.48L59.27-19.48Q59.22-15.57 58.63-12.29L58.63-12.29Q58.05-9.04 56.66-5.89L56.66-5.89Q55.3-2.75 52.74-0.18L52.74-0.18Q50.22 2.38 46.58 4.18L46.58 4.18 46.22 3.73Q50.76-0.45 52.47-6.17L52.47-6.17Q54.23-11.88 54.23-19.53L54.23-19.53ZM80.55 4.09L80.55-37.57 85.77-36.85 85.77 2.29Q85.77 2.79 84.33 3.42L84.33 3.42Q82.94 4.09 81.54 4.09L81.54 4.09 80.55 4.09ZM67.14 3.28L67.14-36.81 72.22-36.13 72.22 1.57Q72.22 2.02 70.83 2.65L70.83 2.65Q69.48 3.28 68.13 3.28L68.13 3.28 67.14 3.28ZM59.76-25.06L60.3-25.24Q65.43-21.96 66.06-17.91L66.06-17.91Q66.42-15.39 65.03-14.26L65.03-14.26Q63.59-13.09 62.01-14.63L62.01-14.63Q61.92-14.71 61.83-14.8L61.83-14.8Q62.1-19.17 59.76-25.06L59.76-25.06ZM72.77-25.11L73.31-25.33Q78.62-22.27 79.42-18.31L79.42-18.31Q79.92-15.75 78.48-14.49L78.48-14.49Q77.13-13.28 75.56-14.63L75.56-14.63Q75.33-14.8 75.15-14.98L75.15-14.98Q75.38-19.57 72.77-25.11L72.77-25.11ZM46.84-25.88L47.38-26.05Q52.78-22.45 53.5-17.95L53.5-17.95Q54-15.16 52.52-13.77L52.52-13.77Q51.08-12.51 49.41-13.99L49.41-13.99Q49.23-14.13 49.05-14.31L49.05-14.31Q49.37-19.53 46.84-25.88L46.84-25.88ZM91.53-33.52L133.29-33.52 133.29-32.27Q133.29-32.27 115.29-32.27L115.29-32.27 115.29-25.88 129.96-25.88 129.96-1.98Q129.96 0.9 128.66 2.21L128.66 2.21Q127.39 3.55 123.21 3.92L123.21 3.92Q122.98 1.26 122.22 0.45L122.22 0.45Q121-0.85 118.58-1.21L118.58-1.21 118.58-1.8Q122.67-1.53 123.7-1.53L123.7-1.53Q124.6-1.53 124.6-2.43L124.6-2.43 124.6-5.4Q124.16-4.5 123.16-4.27 122.17-4.05 120.91-4.72L120.91-4.72Q119.7-8.14 115.61-12.06L115.61-12.06 116.01-12.38Q119.7-11.92 121.81-10.66L121.81-10.66Q123.93-9.45 124.6-7.88L124.6-7.88 124.6-19.39Q119.52-16.43 116.69-15.07L116.69-15.07 116.14-15.62Q118.89-18.81 121.63-23.31L121.63-23.31 124.6-21.2 124.6-24.61 115.29-24.61 115.29 1.4Q115.25 1.62 114.75 1.93 114.25 2.25 113.17 2.56L113.17 2.56Q112.14 2.88 110.92 2.88L110.92 2.88 109.98 2.88 109.98-24.61 100.13-24.61 100.13 2.25Q100.13 2.75 98.73 3.38L98.73 3.38Q97.33 4.05 95.81 4.05L95.81 4.05 95 4.05 95-28.17 100.53-25.88 109.98-25.88 109.98-32.27 91.94-32.27 91.53-33.52ZM100.26-21.82L100.26-21.82 100.62-22.09Q106.74-21.51 108.31-18.59L108.31-18.59Q109.26-16.88 108.09-15.52L108.09-15.52Q106.97-14.13 105.08-14.89L105.08-14.89Q104.72-15.03 104.4-15.25L104.4-15.25Q103.55-18.45 100.26-21.82ZM103.09-3.28L100.13-7.69Q104.17-9.81 108.99-12.51L108.99-12.51 109.22-12.06Q105.57-6.79 103.91-4.68L103.91-4.68Q103.81-3.78 103.09-3.28L103.09-3.28ZM168.7-20.07L168.7-20.07 169.06-20.47Q175.68-20.34 177.75-17.28L177.75-17.28Q178.92-15.48 177.97-13.95L177.97-13.95Q176.99-12.46 175.09-13.05L175.09-13.05Q174.78-13.14 174.47-13.32L174.47-13.32Q173.79-15.12 172.13-17.01L172.13-17.01Q170.5-18.95 168.7-20.07ZM152.95-1.26L152.95-1.26 152.69-2.02Q164.61-5.17 172.08-11.21L172.08-11.21 175-7.79Q165.51-2.56 152.95-1.26ZM171.59-28.53L171.59-32.09 159.84-32.09 159.84-28.53 171.59-28.53ZM159.84-27.27L159.84-23.76 171.59-23.76 171.59-27.27 159.84-27.27ZM152.28-10.71L152.28-10.71 151.83-11.21Q153.81-12.96 155.43-15.57L155.43-15.57Q157.05-18.22 157.91-20.75L157.91-20.75Q157.91-20.75 162.99-18.63L162.99-18.63 162.99-22.32 167.63-21.78 167.63-14.35Q168.25-14.89 169.43-16.06L169.43-16.06 172.62-13.05Q165.47-8.01 154.66-6.84L154.66-6.84 154.4-7.6Q161.87-9.76 166.86-13.72L166.86-13.72Q165.42-13.18 163.8-13.18L163.8-13.18 162.99-13.18 162.99-17.91Q162.54-17.77 161.78-17.82L161.78-17.82Q158.26-13.05 152.28-10.71ZM155.12-22.41L148.05-22.41 148.05-20.79Q152.87-19.35 153.68-16.65L153.68-16.65Q154.17-14.94 152.95-13.99L152.95-13.99Q151.6-13 149.99-14.31L149.99-14.31Q149.67-16.61 148.05-19.35L148.05-19.35 148.05 2.65Q148 2.83 147.51 3.1L147.51 3.1Q147.06 3.42 146.12 3.69L146.12 3.69Q145.17 4 144.09 4L144.09 4 143.24 4 143.24-12.2Q140.53-7.74 136.75-4.23L136.75-4.23 136.22-4.72Q140.44-11.38 142.51-22.41L142.51-22.41 136.75-22.41 136.4-23.67 143.24-23.67 143.24-31.72Q140.63-31.36 137.12-31.14L137.12-31.14 136.98-31.72Q140.13-32.89 143.78-34.74L143.78-34.74Q147.42-36.63 149.44-38.12L149.44-38.12 151.92-33.39Q150.71-32.98 148.05-32.49L148.05-32.49 148.05-23.67 155.12-23.67 155.12-22.41ZM174.47-6.75L174.47-6.75 177.44-3.06Q166.54 3.01 150.79 3.96L150.79 3.96 150.62 3.19Q165.87 0.22 174.47-6.75ZM158.35-20.88L158.35-20.88Q156.82-20.43 155.93-20.43L155.93-20.43 155.29-20.43 155.29-35.28 161.24-33.34Q161.55-35.01 161.87-38.38L161.87-38.38 166.95-37.35Q166.28-35.46 163.84-33.34L163.84-33.34 176.18-33.34 176.18-21.96Q176.13-21.64 174.78-21.15 173.43-20.65 172.35-20.65L172.35-20.65 171.59-20.65 171.59-22.5 159.84-22.5 159.84-21.82Q159.84-21.42 158.35-20.88Z" transform="translate(-1.1299999952316284, 38.380001068115234)"></path></g> <!----> <!----> <!----> <!----> <!----> <!----> <!----></g></g> <g data-gra="path-slogan" fill-rule="" class="tp-slogan iconsvg-slogansvg" fill="#e2a171" transform="translate(5,48.560001373291016)"><rect x="0" height="1" y="3.9750003814697266" width="23.25729751586914"></rect> <rect height="1" y="3.9750003814697266" width="23.25729751586914" x="144.00840377807617"></rect> <g transform="translate(26.25729751586914,0)"><g transform="scale(1)"><path d="M7.31-3.61L4.69-3.61L4.69-4.59L8.44-4.59L8.44 0L7.69 0L7.41-1.08Q6.42 0.09 4.59 0.14L4.59 0.14Q2.86 0.14 1.92-0.75L1.92-0.75Q0.52-2.06 0.56-4.36L0.56-4.36Q0.89-8.63 4.64-8.81L4.64-8.81Q7.83-8.63 8.30-6L8.30-6L7.17-6Q6.70-7.78 4.59-7.83L4.59-7.83Q1.92-7.64 1.78-4.31L1.78-4.31Q1.78-0.75 4.64-0.75L4.64-0.75Q5.67-0.75 6.42-1.31L6.42-1.31Q7.36-2.06 7.31-3.61L7.31-3.61ZM15.89-3.19L15.89-8.58L17.06-8.58L17.06-3.05Q16.92 0.05 13.55 0.14L13.55 0.14Q10.41 0.05 10.27-2.86L10.27-2.86L10.27-8.58L11.44-8.58L11.44-3.19Q11.48-0.84 13.59-0.80L13.59-0.80Q15.89-0.84 15.89-3.19L15.89-3.19ZM24.52 0L23.67-2.48L20.20-2.48L19.31 0L18.14 0L21.38-8.58L22.69-8.58L25.78 0L24.52 0ZM21.94-7.31L20.58-3.52L23.25-3.52L21.98-7.31L21.94-7.31ZM28.22-8.58L32.53-1.64L32.53-8.58L33.66-8.58L33.66 0L32.34 0L27.98-6.94L27.94-6.94L27.94 0L26.81 0L26.81-8.58L28.22-8.58ZM41.86-3.61L39.23-3.61L39.23-4.59L42.98-4.59L42.98 0L42.23 0L41.95-1.08Q40.97 0.09 39.14 0.14L39.14 0.14Q37.41 0.14 36.47-0.75L36.47-0.75Q35.06-2.06 35.11-4.36L35.11-4.36Q35.44-8.63 39.19-8.81L39.19-8.81Q42.38-8.63 42.84-6L42.84-6L41.72-6Q41.25-7.78 39.14-7.83L39.14-7.83Q36.47-7.64 36.33-4.31L36.33-4.31Q36.33-0.75 39.19-0.75L39.19-0.75Q40.22-0.75 40.97-1.31L40.97-1.31Q41.91-2.06 41.86-3.61L41.86-3.61ZM45.61-1.03L50.91-1.03L50.91 0L44.16 0L44.16-0.94L49.41-7.59L44.53-7.59L44.53-8.58L50.91-8.58L50.91-7.59L45.61-1.03ZM53.20-5.06L57.70-5.06L57.70-8.58L58.88-8.58L58.88 0L57.70 0L57.70-3.98L53.20-3.98L53.20 0L52.03 0L52.03-8.58L53.20-8.58L53.20-5.06ZM67.45-4.27L67.45-4.27Q67.27-7.64 64.45-7.83L64.45-7.83Q61.59-7.69 61.45-4.27L61.45-4.27Q61.59-0.94 64.45-0.80L64.45-0.80Q67.27-0.98 67.45-4.27ZM68.63-4.27L68.63-4.27Q68.34 0 64.45 0.14L64.45 0.14Q60.52 0 60.23-4.27L60.23-4.27Q60.47-8.72 64.45-8.81L64.45-8.81Q68.34-8.67 68.63-4.27ZM75.66-3.19L75.66-8.58L76.83-8.58L76.83-3.05Q76.69 0.05 73.31 0.14L73.31 0.14Q70.17 0.05 70.03-2.86L70.03-2.86L70.03-8.58L71.20-8.58L71.20-3.19Q71.25-0.84 73.36-0.80L73.36-0.80Q75.66-0.84 75.66-3.19L75.66-3.19ZM88.88-8.58L85.64-3.47L85.64 0L84.47 0L84.47-3.47L81.23-8.58L82.59-8.58L85.03-4.45L87.52-8.58L88.88-8.58ZM95.58-3.19L95.58-8.58L96.75-8.58L96.75-3.05Q96.61 0.05 93.23 0.14L93.23 0.14Q90.09 0.05 89.95-2.86L89.95-2.86L89.95-8.58L91.13-8.58L91.13-3.19Q91.17-0.84 93.28-0.80L93.28-0.80Q95.58-0.84 95.58-3.19L95.58-3.19ZM106.78-8.58L106.78 0L105.66 0L105.66-5.06Q105.66-5.77 105.66-7.22L105.66-7.22L103.22 0L102.05 0L99.66-7.22L99.61-7.22Q99.61-6.70 99.66-5.67L99.66-5.67Q99.66-5.16 99.66-5.06L99.66-5.06L99.66 0L98.48 0L98.48-8.58L100.17-8.58L102.66-1.31L105.09-8.58L106.78-8.58ZM114.14-3.19L114.14-8.58L115.31-8.58L115.31-3.05Q115.17 0.05 111.80 0.14L111.80 0.14Q108.66 0.05 108.52-2.86L108.52-2.86L108.52-8.58L109.69-8.58L109.69-3.19Q109.73-0.84 111.84-0.80L111.84-0.80Q114.14-0.84 114.14-3.19L114.14-3.19Z" transform="translate(-0.5609879032258065, 8.8125)"></path></g></g></g></g></g><defs v-gra="od"></defs></svg>